<svg width="24" height="24" viewBox="0 0 24 24" fill="none" xmlns="http://www.w3.org/2000/svg">
<path d="M20.2 9.01005C21.6 10.7001 21.6 13.3001 20.2 14.9901C18.2 17.4001 15.27 18.9401 12 18.9401C8.73001 18.9401 5.81 17.4101 3.8 14.9901C2.4 13.3001 2.4 10.7001 3.8 9.01005C5.8 6.60005 8.73001 5.06006 12 5.06006C15.27 5.06006 18.19 6.59005 20.2 9.01005Z" stroke="#3C3F4C" stroke-width="1.5" stroke-linecap="round" stroke-linejoin="round"/>
<path d="M20.2 9.01005C21.6 10.7001 21.6 13.3001 20.2 14.9901C18.2 17.4001 15.27 18.9401 12 18.9401C8.73001 18.9401 5.81 17.4101 3.8 14.9901C2.4 13.3001 2.4 10.7001 3.8 9.01005C5.8 6.60005 8.73001 5.06006 12 5.06006C15.27 5.06006 18.19 6.59005 20.2 9.01005Z" stroke="#30333E" stroke-width="1.5" stroke-linecap="round" stroke-linejoin="round"/>
<path d="M11.9999 15.0801C13.7009 15.0801 15.0799 13.7011 15.0799 12.0001C15.0799 10.2991 13.7009 8.92004 11.9999 8.92004C10.2989 8.92004 8.91992 10.2991 8.91992 12.0001C8.91992 13.7011 10.2989 15.0801 11.9999 15.0801Z" stroke="#9296A9" stroke-width="1.5" stroke-linecap="round" stroke-linejoin="round"/>
</svg>
