<svg width="30" height="32" viewBox="0 0 30 32" fill="none" xmlns="http://www.w3.org/2000/svg">
<path d="M22.1591 0.143538C22.0746 0.494409 21.1607 2.96114 20.4686 4.70486C19.2588 7.75106 18.2287 10.0689 16.7865 12.9716C15.7352 15.0928 15.0643 16.374 15.0062 16.374C14.9428 16.374 12.8191 14.189 12.0425 13.3172C10.3943 11.4777 8.98378 9.75528 7.64195 7.94776C7.20876 7.36298 6.83368 6.86325 6.80727 6.83667C6.71218 6.73566 7.45177 9.31404 7.98533 10.9514C9.5913 15.8796 11.8735 20.8077 14.5941 25.2149L15.0115 25.9007L15.3548 25.4275C20.1041 18.8939 22.6081 10.978 22.4338 3.03025C22.4021 1.54171 22.3017 0 22.2331 0C22.2119 0 22.1802 0.0637948 22.1591 0.143538Z" fill="#9296A9"/>
<path d="M4.21869 6.41669C3.35231 7.32576 2.76592 8.09661 2.14255 9.13859C-1.18562 14.7206 -0.593945 21.7806 3.62173 26.7353C7.00273 30.7118 12.2169 32.6363 17.3517 31.8123C20.8754 31.2488 24.0715 29.4519 26.3801 26.7353C31.1134 21.1745 31.2138 13.0673 26.6283 7.36297C26.174 6.79414 25.239 5.83722 25.1861 5.89038C25.1386 5.93822 24.7213 7.16627 24.7213 7.25665C24.7213 7.28323 24.9062 7.52778 25.1333 7.7989C27.1513 10.1965 28.3453 13.0992 28.6305 16.3049C28.7362 17.4957 28.4456 19.4308 27.9226 21.0097C27.7272 21.5998 27.2042 22.8757 27.1725 22.8491C27.1619 22.8385 26.4065 20.0315 25.4873 16.6132C23.6383 9.71806 23.7704 10.1912 23.7387 10.2178C23.7281 10.2284 23.1153 11.9987 22.3757 14.1465L21.0286 18.0539L22.0376 22.9395C22.6821 26.0814 23.0255 27.8517 22.9938 27.8996C22.9674 27.9421 22.6874 28.1388 22.3704 28.3408C20.3154 29.6433 18.0649 30.3982 15.5926 30.6215C14.499 30.7225 12.7399 30.4726 11.2026 29.9995C10.5475 29.8028 9.44338 29.3456 8.78303 29.0053C8.13325 28.6651 7.07669 28.0112 7.00801 27.8996C6.97631 27.8517 7.3197 26.0814 7.9642 22.9395L8.97322 18.0539L7.6261 14.1465C6.88651 11.9987 6.2737 10.2284 6.26314 10.2178C6.23144 10.1912 6.36351 9.71806 4.51453 16.6132C3.59532 20.0315 2.83988 22.8385 2.82931 22.8491C2.79762 22.8757 2.27462 21.5998 2.07915 21.0097C1.55616 19.4308 1.2656 17.4957 1.37126 16.3049C1.65653 13.0992 2.85044 10.1965 4.86848 7.7989C5.09564 7.52778 5.28053 7.28323 5.28053 7.25665C5.28053 7.16627 4.86319 5.93822 4.81565 5.89038C4.78923 5.8638 4.51981 6.10303 4.21869 6.41669Z" fill="#9296A9"/>
</svg>
