<svg width="19" height="18" viewBox="0 0 19 18" fill="none" xmlns="http://www.w3.org/2000/svg">
<path d="M9.59375 11.8125C9.59375 11.8642 9.55175 11.9062 9.5 11.9062C9.44825 11.9062 9.40625 11.8642 9.40625 11.8125C9.40625 11.7608 9.44825 11.7188 9.5 11.7188" stroke="#83879B" stroke-width="1.5" stroke-linecap="round" stroke-linejoin="round"/>
<path d="M7.76416 7.26419C7.94185 6.49834 8.63937 5.96733 9.42493 5.99993C10.304 5.95123 11.0577 6.62116 11.1124 7.49993C11.1124 8.62785 9.49992 8.99992 9.49992 9.74992M9.5 11.7187C9.55175 11.7187 9.59375 11.7607 9.59375 11.8125M9.5 15.75C13.2279 15.75 16.25 12.7279 16.25 9C16.25 5.27208 13.2279 2.25 9.5 2.25C5.77208 2.25 2.75 5.27208 2.75 9C2.75 12.7279 5.77208 15.75 9.5 15.75Z" stroke="#83879B" stroke-width="1.5" stroke-linecap="round" stroke-linejoin="round"/>
</svg>
